<?xml version="1.0" encoding="UTF-8"?>
<svg width="448px" height="91px" viewBox="0 0 448 91" version="1.1" xmlns="http://www.w3.org/2000/svg" xmlns:xlink="http://www.w3.org/1999/xlink">
    <title>Robin's Hood logo</title>
    <defs>
        <style>
            #Text {
                fill: #F5F4F2;
            }
            @media (prefers-color-scheme: dark) {
                #Text {
                    fill: #212121;
                }
            }
        </style>
    </defs>
    <g id="single line logo" stroke="none" stroke-width="1" fill="none" fill-rule="evenodd">
        <g id="Logo" transform="translate(-20.500000, -5.000000)">
            <path d="M53.7835593,79.4221302 C53.9931445,79.5242816 54.1677631,79.7125743 54.2860925,80.0198216 L54.3332966,80.1588776 L57.492078,91.2516636 C57.7795091,92.2423895 58.3248195,92.7893084 59.0798963,93.0028446 C54.0447082,96.0327344 46.8465371,96.038042 41.7981741,93.0189564 C42.5864097,92.8184762 43.1535619,92.2691 43.4487423,91.2516636 L46.6075237,80.1588776 C46.7204872,79.7795232 46.9064965,79.5523807 47.1364267,79.4326301 C48.2180627,79.5893337 49.3164562,79.6695552 50.4248903,79.6695552 C51.5561328,79.6695552 52.6770097,79.5859437 53.7797857,79.42273 L53.7835593,79.4221302 Z M67.9359927,24.8554687 C75.7871754,32.7463547 82.4636567,47.7158848 79.6367508,63.3142988 C77.8383154,73.2237835 71.8001068,82.7115229 60.6827028,91.8728266 C60.5831628,91.9548526 60.4823271,92.0353973 60.3802426,92.1144606 L59.6934195,92.1141964 C59.2524003,92.1141964 58.9372779,91.9220181 58.7556943,91.3914421 L58.7130849,91.2516636 L55.5278351,80.1588776 C55.4187925,79.7695872 55.2665023,79.4499631 55.0762325,79.1926351 C60.6268618,78.0420772 65.6268578,74.8575757 69.0459811,70.1728524 C71.0273057,67.4661328 72.4964205,64.5988617 73.5220404,61.6855245 C78.3719798,47.8306723 73.9729866,33.2280091 67.9359927,24.8554687 Z M33.0272156,24.8554687 C26.9888715,33.2280091 22.4776509,47.8306723 27.32654,61.6855245 C28.3518598,64.5988617 29.8215748,67.4661328 31.8039496,70.1728524 C35.2389176,74.8800967 40.2693402,78.0726604 45.8533708,79.2092033 C45.6682285,79.4628081 45.5198415,79.7773925 45.4129852,80.1588776 L42.2277354,91.2516636 C42.0551885,91.8886538 41.7251716,92.1141964 41.2472892,92.1141964 L40.4699,92.1144105 C40.367698,92.0353633 40.2667417,91.9548353 40.1670778,91.8728266 C29.0408383,82.7175666 23.0107151,73.2237835 21.2130298,63.3142988 C18.3852238,47.7158848 25.1751328,32.7463547 33.0272156,24.8554687 Z M50.4013672,5.5234375 C58.0137002,5.5234375 64.3085938,13.1354609 64.3085938,21.5019531 C62.7835269,15.9098091 57.0136688,11.2698301 50.4013672,11.2698301 C43.7898215,11.2698301 38.2149613,15.9098091 36.6914063,21.5019531 C36.6914063,13.1354609 42.7896388,5.5234375 50.4013672,5.5234375 Z" id="Outside" fill="#8D7C68"></path>
            <path d="M50.4013672,11.2698301 C57.0136688,11.2698301 62.7835269,15.9098091 64.3085938,21.5019531 C65.6437436,22.494426 66.8672646,23.6299135 67.9569797,24.8847211 L68.1586597,25.1681679 L68.1586597,25.1681679 C68.2494348,25.2973131 68.3398135,25.4278209 68.4297689,25.5596977 L68.5643922,25.7584636 L68.7236868,25.9977852 L68.7236868,25.9977852 L68.8820607,26.239897 C68.9846292,26.3982462 69.0865995,26.5583676 69.1878987,26.720259 L69.3017521,26.9033687 L69.3017521,26.9033687 L69.4545173,27.1530172 L69.6044267,27.4022684 C69.6813912,27.5314469 69.7579136,27.661618 69.8339784,27.7927893 L69.9477304,27.9902974 L70.0339522,28.1417731 L70.1102098,28.2771819 L70.2826979,28.5880293 L70.2826979,28.5880293 L70.3681802,28.7446461 C70.4408782,28.8784859 70.5130806,29.0132716 70.584775,29.148984 L70.6919809,29.3533742 C70.76109,29.4860003 70.829735,29.6195488 70.8978852,29.7539661 L70.999748,29.9562948 L70.999748,29.9562948 L71.1359342,30.2311657 L71.1359342,30.2311657 L71.2122849,30.3875122 L71.3266548,30.6249273 L71.3266548,30.6249273 L71.4575426,30.9013783 L71.5521033,31.1044283 L71.6623572,31.3447586 L71.7551384,31.5500943 L71.9008383,31.8785443 L71.9726875,32.0432963 L71.9726875,32.0432963 L72.0439324,32.2085546 C72.1069498,32.355552 72.1693065,32.5032648 72.231008,32.6517271 L72.334161,32.9021238 C72.4682037,33.2304064 72.5990271,33.5622226 72.7265054,33.8975631 C72.7998265,34.0904396 72.8720075,34.2843921 72.9430469,34.4794763 C73.041016,34.7485116 73.1367925,35.0196381 73.2303046,35.2928296 C73.2849208,35.4523926 73.3387663,35.6126633 73.3918212,35.7736222 L73.4708649,36.0157418 C73.7797903,36.9712844 74.0607701,37.9506807 74.3098793,38.9502511 L74.4017857,39.3259745 C74.4483278,39.5199316 74.4936563,39.7145692 74.5377511,39.9099157 C74.5782689,40.0893932 74.6177375,40.2694562 74.6561432,40.4500977 C74.6911508,40.6147708 74.7252836,40.7799565 74.7585192,40.9456187 L74.8076981,41.1944453 L74.8381293,41.3523737 L74.8381293,41.3523737 C74.9774855,42.0826456 75.0992484,42.8216847 75.2020288,43.5681872 C75.2269975,43.7495707 75.2508449,43.9313535 75.2735522,44.1135584 L75.304603,44.3689455 L75.3477821,44.7478614 C75.3682681,44.935079 75.3875388,45.1227156 75.405573,45.3107517 C75.4904826,46.1960255 75.5479829,47.0902091 75.5758546,47.9912163 L75.5861051,48.3837918 C75.5962933,48.8622164 75.5980731,49.3424738 75.5911147,49.8242615 C75.5860999,50.1716508 75.5765374,50.5199014 75.5623063,50.8688346 C75.5492024,51.1900915 75.5321438,51.5119123 75.5110316,51.8342229 C75.4961263,52.0617931 75.4792007,52.2895868 75.4602207,52.5175934 L75.4243532,52.9226549 C75.4163251,53.0081871 75.4080056,53.0937466 75.3993931,53.1793318 C75.3797842,53.3741973 75.3586571,53.569178 75.3359898,53.7642723 L75.2863983,54.1719124 C75.2389828,54.5448667 75.1858935,54.9181869 75.1269833,55.2917383 C74.974321,56.2597817 74.7825581,57.2294146 74.5491411,58.198253 C74.325385,59.1269855 74.0633688,60.0549358 73.7608251,60.9800889 C73.6838631,61.215432 73.6042815,61.4505858 73.5220404,61.6855245 C72.4964205,64.5988617 71.0273057,67.4661328 69.0459811,70.1728524 C64.736627,76.0773285 57.9160126,79.5986603 50.6453491,79.6684965 L50.4248903,79.6695552 C43.0694139,79.6695552 36.1560823,76.1369696 31.8039496,70.1728524 C29.8215748,67.4661328 28.3518598,64.5988617 27.32654,61.6855245 C22.4776509,47.8306723 26.9888715,33.2280091 33.0272156,24.8554688 L32.9899596,24.9070811 C34.0900912,23.6301638 35.33217,22.4807785 36.6914706,21.4788165 L36.6914063,21.5019531 L36.6914063,21.5019531 C38.2149613,15.9098091 43.7898215,11.2698301 50.4013672,11.2698301 Z" id="Inside" fill="#EF9A39"></path>
            <path d="M52.3576374,22.3087695 C52.5319612,22.3083313 52.6972605,22.3842618 52.8090143,22.5156971 C52.9209185,22.6472805 52.9673948,22.8207515 52.9362602,22.989486 C52.9347561,22.989634 52.9347561,22.9899301 52.9346057,22.9903741 C52.7825424,23.8094768 52.3052951,24.6305036 51.3432802,25.3508817 C51.0976319,25.5351611 50.7737002,25.6667405 50.4652959,25.6701511 C50.1452607,25.6736902 49.8406653,25.5421108 49.585753,25.3508817 C48.623738,24.6305036 48.1464908,23.8094768 47.9945779,22.9903741 C47.9944275,22.9900781 47.9944275,22.989634 47.9942771,22.989338 C47.9632928,22.8208995 48.0096188,22.6475765 48.1210717,22.5161412 C48.2325247,22.3847058 48.3975232,22.3087695 48.5715462,22.3087695 L52.3576374,22.3087695 L52.3576374,22.3087695 Z M44.2430673,16.6719685 C45.0863306,17.2564066 45.4775714,18.2373815 45.506336,18.9768085 L45.508047,19.0587275 L45.5073693,19.0545606 C45.5396678,19.4890495 45.3823263,19.9336779 45.0484422,20.267562 C44.7343584,20.5816458 44.3185579,20.7320189 43.9070768,20.7186813 L43.8507198,20.7160547 C43.1033502,20.7141697 42.0756853,20.3204494 41.4693459,19.4456899 C41.0842662,18.8898454 40.8860411,18.1449662 41.0123431,17.1910065 C41.0777583,16.6943236 41.4970852,16.2749967 41.9937752,16.2095744 C42.947742,16.0832653 43.6872583,16.2868532 44.2430673,16.6719685 Z M56.7000764,16.6719685 C57.2558854,16.2868532 57.9954017,16.0832653 58.9493685,16.2095744 C59.4460585,16.2749967 59.8653854,16.6943236 59.9308006,17.1910065 C60.0571026,18.1449662 59.8588776,18.8898454 59.4737978,19.4456899 C58.8674584,20.3204494 57.8397935,20.7141697 57.0924239,20.7160547 L57.0924239,20.7160547 L57.0360669,20.7186813 C56.6245858,20.7320189 56.2087853,20.5816458 55.8947015,20.267562 C55.5608174,19.9336779 55.4034759,19.4890495 55.4357744,19.0545606 L55.4357744,19.0545606 L55.4350967,19.0587275 L55.4368078,18.9768085 C55.4655723,18.2373815 55.8568131,17.2564066 56.7000764,16.6719685 Z" id="Face" fill="#000000"></path>
        </g>
        <g id="Text" transform="translate(76.000000, -11.318359)">
            <g>
                <path d="M20.2815148,81.5706513 L20.2815148,62.1587439 L29.8135752,62.2214979 C32.7593302,62.2214979 35.2405855,62.9717095 37.2573413,64.4721326 C39.4118263,66.0750232 39.517243,69.7507585 39.517243,72.3528797 C39.517243,73.7474133 39.517243,76.8200038 39.517243,81.5706513 L46.0724602,81.5706513 C46.0724602,76.7794889 46.0724602,73.5123242 46.0724602,71.7691572 C46.0724602,67.097092 43.7949475,61.793936 37.7448761,60.2144155 C43.8237808,58.6748504 46.5325559,54.7554385 46.5325559,47.9947397 C46.5325559,39.4267254 41.4050684,33.4942459 33.097232,33.4942459 L13.6447368,33.4942459 L13.7298064,81.5706513 L20.2815148,81.5706513 Z M33.0789928,56.5193625 L20.2510631,56.5193625 L20.2510631,38.9767402 L33.0789928,38.9767402 C37.216286,38.9767402 39.6853159,42.2099905 39.6853159,46.11921 L39.6853159,49.3768928 C39.6853159,53.2861123 37.216286,56.5193625 33.0789928,56.5193625 Z M66.4042227,82.333374 C75.526174,82.333374 81.6721695,75.1733498 81.6721695,64.028029 C81.6721695,52.8827082 75.526174,45.722684 66.4042227,45.722684 C57.2822715,45.722684 51.136276,52.8827082 51.136276,64.028029 C51.136276,75.1733498 57.2822715,82.333374 66.4042227,82.333374 Z M287.789451,82.333374 C296.911402,82.333374 303.057397,75.1733498 303.057397,64.028029 C303.057397,52.8827082 296.911402,45.722684 287.789451,45.722684 C278.667499,45.722684 272.521504,52.8827082 272.521504,64.028029 C272.521504,75.1733498 278.667499,82.333374 287.789451,82.333374 Z M322.142331,82.333374 C331.264282,82.333374 337.410278,75.1733498 337.410278,64.028029 C337.410278,52.8827082 331.264282,45.722684 322.142331,45.722684 C313.02038,45.722684 306.874384,52.8827082 306.874384,64.028029 C306.874384,75.1733498 313.02038,82.333374 322.142331,82.333374 Z M66.1947823,76.9943151 C61.0042376,76.9943151 57.8687208,73.6339425 57.8687208,66.979087 L57.8687208,61.8396937 C57.8687208,55.1848382 61.0042376,51.8244657 66.1947823,51.8244657 C71.385327,51.8244657 74.9738517,55.1848382 74.9738517,61.8396937 L74.9738517,66.979087 C74.9738517,73.6339425 71.385327,76.9943151 66.1947823,76.9943151 Z M287.58001,76.9943151 C282.389466,76.9943151 279.253949,73.6339425 279.253949,66.979087 L279.253949,61.8396937 C279.253949,55.1848382 282.389466,51.8244657 287.58001,51.8244657 C292.770555,51.8244657 296.35908,55.1848382 296.35908,61.8396937 L296.35908,66.979087 C296.35908,73.6339425 292.770555,76.9943151 287.58001,76.9943151 Z M321.932891,76.9943151 C316.742346,76.9943151 313.606829,73.6339425 313.606829,66.979087 L313.606829,61.8396937 C313.606829,55.1848382 316.742346,51.8244657 321.932891,51.8244657 C327.123435,51.8244657 330.71196,55.1848382 330.71196,61.8396937 L330.71196,66.979087 C330.71196,73.6339425 327.123435,76.9943151 321.932891,76.9943151 Z M103.561831,82.333374 C112.30559,82.333374 117.551844,75.4384419 117.551844,64.192339 C117.551844,52.946236 112.30559,46.0513039 103.561831,46.0513039 C98.7863944,46.0513039 95.1543718,48.2603598 93.5401395,52.5445895 L93.2711008,52.5445895 L93.2711008,31.9936752 L87.0159508,31.9936752 L87.0159508,81.530081 L93.2711008,81.530081 L93.2711008,75.8400884 L93.5401395,75.8400884 C95.1543718,80.1243181 98.7863944,82.333374 103.561831,82.333374 Z M101.56712,76.9943151 C96.8760142,76.9943151 93.1231295,74.3448572 93.1231295,70.7018527 L93.1231295,58.116928 C93.1231295,54.4739235 96.8760142,51.8244657 101.56712,51.8244657 C107.129431,51.8244657 110.681268,55.732416 110.681268,61.4949867 L110.681268,67.323794 C110.681268,73.0863648 107.129431,76.9943151 101.56712,76.9943151 Z M127.47601,39.6209023 C130.134268,39.6209023 131.292996,38.2401112 131.292996,36.2675525 L131.292996,35.3470251 C131.292996,33.3744663 130.134268,31.9936752 127.47601,31.9936752 C124.817751,31.9936752 123.659023,33.3744663 123.659023,35.3470251 L123.659023,36.2675525 C123.659023,38.2401112 124.817751,39.6209023 127.47601,39.6209023 Z M130.529599,81.5706513 L130.529599,46.4854067 L124.42242,46.4854067 L124.42242,81.5706513 L130.529599,81.5706513 Z M145.085655,81.5706513 L145.085655,57.559277 C145.085655,53.2981035 148.992778,51.2013356 153.032345,51.2013356 C157.866582,51.2013356 160.250589,54.2450309 160.250589,60.1295086 L160.250589,81.5706513 L166.409274,81.5706513 L166.409274,59.1825812 C166.409274,50.6602342 162.104817,45.722684 155.08524,45.722684 C149.919891,45.722684 147.006105,48.428191 145.416767,52.2835384 L145.085655,52.2835384 L145.085655,46.5343361 L138.92697,46.5343361 L138.92697,81.5706513 L145.085655,81.5706513 Z M173.705392,47.2481294 C177.271488,44.3470112 179.387029,39.9065241 179.387029,36.413341 L179.387029,35.5252436 C179.387029,33.6201929 178.466815,31.9936752 175.400325,31.9936752 C172.333835,31.9936752 171.408584,33.6201929 171.408584,35.5252436 L171.408584,36.413341 C171.408584,38.1895358 172.715186,39.4713801 174.528455,39.826619 C173.803147,42.6093243 172.704395,44.7614567 170.226261,47.2481294 L173.705392,47.2481294 Z M194.196937,82.333374 C202.475557,82.333374 207.63273,78.0778879 207.63273,71.2556007 C207.63273,65.8518088 204.443426,62.4744388 196.707666,61.3261331 L193.721934,60.8533013 C189.650482,60.2453747 187.614756,58.9619741 187.614756,55.8547938 C187.614756,52.8827082 189.786197,50.9238337 194.061222,50.9238337 C198.26839,50.9238337 201.254121,52.8827082 202.95056,55.1117724 L206.954155,51.3291181 C203.968423,47.8166533 200.236258,45.722684 194.264795,45.722684 C186.868323,45.722684 181.507577,49.3702435 181.507577,56.2600782 C181.507577,62.7446284 186.189747,65.5140718 192.907644,66.4597354 L195.893376,66.9325671 C200.168401,67.5404937 201.525552,69.3642735 201.525552,71.9310746 C201.525552,75.1733498 199.08268,77.1322243 194.604082,77.1322243 C190.329057,77.1322243 187.071895,75.2408972 184.425451,71.9310746 L180.150426,75.5786342 C183.407588,79.6990255 187.682613,82.333374 194.196937,82.333374 Z M239.3915,81.5706513 L239.3915,60.9072037 L260.059565,60.9072037 L260.059565,81.5706513 L266.626223,81.5706513 L266.626223,33.5191206 L260.059565,33.5191206 L260.059565,55.1747634 L239.3915,55.1747634 L239.3915,33.5191206 L232.824842,33.5191206 L232.824842,81.5706513 L239.3915,81.5706513 Z M355.217277,82.333374 C359.992714,82.333374 363.624737,80.1243181 365.238969,75.8400884 L365.508008,75.8400884 L365.508008,81.530081 L371.763158,81.530081 L371.763158,31.9936752 L365.508008,31.9936752 L365.508008,52.5445895 L365.238969,52.5445895 C363.624737,48.2603598 359.992714,46.0513039 355.217277,46.0513039 C346.473519,46.0513039 341.227264,52.946236 341.227264,64.192339 C341.227264,75.4384419 346.473519,82.333374 355.217277,82.333374 Z M356.831687,76.9943151 C351.269376,76.9943151 347.717539,73.0863648 347.717539,67.323794 L347.717539,61.4949867 C347.717539,55.732416 351.269376,51.8244657 356.831687,51.8244657 C361.522793,51.8244657 365.275678,54.4739235 365.275678,58.116928 L365.275678,70.7018527 C365.275678,74.3448572 361.522793,76.9943151 356.831687,76.9943151 Z" id="Robin’sHood" fill-rule="nonzero"></path>
            </g>
        </g>
    </g>
</svg>
